<?xml version="1.0" standalone="no"?>
<!DOCTYPE svg PUBLIC "-//W3C//DTD SVG 20010904//EN"
 "http://www.w3.org/TR/2001/REC-SVG-20010904/DTD/svg10.dtd">
<svg version="1.0" xmlns="http://www.w3.org/2000/svg"
 width="16.000000pt" height="16.000000pt" viewBox="0 0 16.000000 16.000000"
 preserveAspectRatio="xMidYMid meet">
<metadata>
Created by potrace 1.11, written by Peter Selinger 2001-2013
</metadata>
<g transform="translate(0.000000,16.000000) scale(0.006324,-0.006324)"
fill="#000000" stroke="none">
<path d="M178 2360 l-168 -169 0 -925 0 -925 171 -172 171 -172 169 169 169
169 0 572 0 573 286 -286 286 -286 284 286 284 286 0 -571 0 -570 171 -171
171 -171 169 169 169 169 0 930 0 931 -170 169 -170 168 -454 -456 -455 -456
-453 454 c-249 250 -455 455 -458 454 -3 0 -80 -76 -172 -169z m128 -180 c-1
-104 -2 -190 -5 -190 -2 0 -46 42 -97 93 l-93 92 97 98 c53 53 97 97 97 97 0
0 1 -85 1 -190z m192 -97 c-51 -51 -95 -93 -98 -93 -3 0 -5 85 -5 190 l0 190
97 -97 98 -98 -92 -92z m1626 95 c-1 -101 -2 -185 -3 -188 0 -2 -44 38 -96 90
l-95 95 92 92 c51 51 95 93 98 93 3 0 5 -82 4 -182z m193 90 l93 -93 -92 -92
c-51 -51 -95 -93 -98 -93 -3 0 -5 83 -5 185 0 102 2 185 5 185 2 0 46 -42 97
-92z m-2128 -299 c50 -51 91 -95 91 -98 0 -4 -43 -49 -95 -101 l-94 -94 0 192
c0 106 2 192 4 192 2 0 44 -41 94 -91z m421 -101 l0 -192 -97 97 -98 97 95 95
c52 52 96 95 97 95 2 0 3 -86 3 -192z m187 -93 l-97 -97 0 194 0 193 97 -97
97 -97 -97 -96z m1026 98 c-1 -98 -2 -181 -2 -185 -1 -4 -44 36 -96 89 l-96
97 92 92 c51 51 95 91 98 89 3 -2 5 -83 4 -182z m187 95 c49 -51 90 -95 90
-98 0 -3 -42 -47 -94 -99 l-93 -93 -1 191 c0 105 2 191 4 191 2 0 44 -41 94
-92z m420 -100 l0 -193 -95 95 c-52 52 -94 98 -92 103 2 8 179 187 184 187 2
0 3 -87 3 -192z m-2124 -298 c0 -104 -2 -190 -4 -190 -5 0 -182 183 -182 189
0 4 181 191 185 191 0 0 0 -85 1 -190z m184 98 c49 -51 90 -97 90 -101 0 -10
-171 -187 -180 -187 -3 0 -5 86 -5 190 0 105 1 190 2 190 1 0 43 -42 93 -92z
m422 -98 c0 -100 -2 -183 -4 -186 -2 -2 -46 39 -97 90 l-93 94 93 94 c52 52
96 94 97 92 2 -1 4 -84 4 -184z m217 -68 c-37 -37 -81 -80 -97 -95 l-29 -28 0
192 0 191 97 -97 97 -96 -68 -67z m391 66 l0 -193 -97 98 -98 97 95 95 c52 52
96 95 98 95 1 0 2 -87 2 -192z m187 -96 l-97 -97 0 195 0 195 97 -98 96 -99
-96 -96z m418 98 c0 -104 -1 -190 -2 -190 -1 0 -44 42 -96 94 l-94 93 91 95
c50 52 93 96 96 97 3 0 5 -84 5 -189z m192 -96 c-51 -52 -94 -94 -97 -94 -4 0
-5 371 -1 377 0 1 44 -42 96 -94 l94 -95 -92 -94z m-914 -112 l97 -97 -97 -98
-98 -97 0 195 c0 107 0 195 0 195 0 0 44 -44 98 -98z m-1212 -1 c49 -48 89
-92 89 -96 0 -9 -174 -185 -183 -185 -3 0 -6 83 -6 185 1 102 3 185 6 185 2 0
45 -40 94 -89z m419 -96 c0 -102 -2 -185 -5 -185 -5 0 -155 148 -173 172 -12
15 -3 28 75 107 48 49 91 90 96 90 4 1 7 -82 7 -184z m605 -6 c0 -98 -2 -179
-5 -179 -2 0 -46 42 -97 92 l-93 93 92 92 c51 51 94 90 97 87 3 -3 6 -86 6
-185z m800 98 l92 -92 -91 -93 c-51 -50 -95 -92 -99 -92 -4 0 -7 83 -6 185 1
102 4 185 7 185 3 0 46 -42 97 -93z m415 -98 l0 -191 -95 96 c-63 64 -93 101
-88 110 12 19 167 174 176 175 4 1 7 -85 7 -190z m-2125 -305 c0 -101 0 -184
-1 -184 -1 0 -44 43 -96 97 l-95 96 91 92 c50 50 93 89 96 87 3 -2 5 -87 5
-188z m190 102 l94 -95 -95 -95 c-52 -53 -96 -96 -97 -96 -1 0 -2 85 -2 190 0
104 1 190 3 190 2 0 46 -42 97 -94z m1630 -102 c1 -101 0 -184 -1 -184 0 0
-44 43 -97 95 l-95 96 91 93 c51 51 94 91 97 89 3 -3 5 -87 5 -189z m191 101
l94 -95 -95 -95 c-52 -52 -96 -95 -97 -95 -2 0 -3 86 -3 190 0 105 2 190 4
190 2 0 46 -43 97 -95z m-2036 -397 c0 -8 -177 -188 -185 -188 -2 0 -4 86 -4
192 l0 192 94 -94 c52 -52 95 -98 95 -102z m327 -185 c-4 -4 -187 178 -187
186 0 3 42 47 93 98 l92 93 3 -187 c1 -102 1 -188 -1 -190z m1493 185 c0 -8
-176 -188 -184 -188 -2 0 -4 87 -5 192 l-1 193 95 -95 c52 -52 95 -98 95 -102z
m328 -92 l-3 -95 -55 53 c-30 29 -73 72 -94 94 l-40 42 95 95 94 95 3 -95 c1
-52 1 -137 0 -189z m-2122 -216 l-1 -190 -97 97 -97 96 92 93 c51 52 95 94 98
94 3 0 5 -85 5 -190z m192 -87 c-51 -51 -95 -93 -98 -93 -4 0 -5 351 -1 370 1
2 44 -38 96 -90 l95 -95 -92 -92z m1627 92 c0 -102 -2 -185 -5 -185 -2 0 -46
42 -97 92 l-93 93 92 92 c51 51 95 93 98 93 3 0 5 -83 5 -185z m192 93 l92
-93 -94 -96 c-52 -53 -96 -96 -96 -95 -4 4 -3 376 1 376 3 0 47 -42 97 -92z"/>
</g>
</svg>
